<svg xmlns="http://www.w3.org/2000/svg" xmlns:xlink="http://www.w3.org/1999/xlink" width="109" height="35"><defs><filter id="a" width="107.2%" height="112.5%" x="-3.6%" y="-5.9%" filterUnits="objectBoundingBox"><feOffset dy="2" in="SourceAlpha" result="shadowOffsetOuter1"/><feGaussianBlur in="shadowOffsetOuter1" result="shadowBlurOuter1" stdDeviation="11"/><feColorMatrix in="shadowBlurOuter1" values="0 0 0 0 0.700152853 0 0 0 0 0.700152853 0 0 0 0 0.700152853 0 0 0 0.5 0"/></filter><rect id="b" width="940" height="546" rx="20"/><path id="c" d="M0 .676h108.84v33.497H0z"/></defs><g fill="none" fill-rule="evenodd"><g transform="translate(-206 -428)"><use fill="#000" filter="url(#a)" xlink:href="#b"/><use fill="#FFF" xlink:href="#b"/></g><path fill="#00935B" d="M33.518 9.19h-2.915l-.71.88c-.125.126-.083.252.041.293l.96.418 2.713-1.256a.175.175 0 00-.085-.335h-.004zM22.67 23.468h-3.59c-.789.494-1.628.9-2.504 1.211-.092.037-.125.124-.083.251l3.206 9h1.836l-2.939-8.245c1.914 0 6.485-.51 8.959-4.52a5.83 5.83 0 01-4.882 2.301l-.004.002zm5.06-12.88a.681.681 0 01-.965 0 .688.688 0 010-.97.68.68 0 01.965 0 1.452 1.452 0 00-2.058.002 1.464 1.464 0 00.002 2.066 1.452 1.452 0 002.056 0c.57-.57.57-1.494.003-2.065l-.003-.002a.687.687 0 01.005.967l-.005.001zM20.707 26.9l2.504 7.033h1.836l-2.629-7.367a16.18 16.18 0 01-1.707.333h-.004zm2.476-8.77c.196-.297.383-.601.561-.912a.183.183 0 00-.238.052c-3.713 3.935-7.302 4.436-10.057 4.436H9.235a.183.183 0 01-.142-.285 62.03 62.03 0 019.54-10.366l-7.06 5.923a3.136 3.136 0 01-2.132.751H.553c-.252 0-.168.215-.126.337a5.172 5.172 0 005.217 3.641l-2.088 2.138a.168.168 0 00.127.293h7.927c5.733 0 9.257-2.498 11.569-6.005l.004-.002z"/><g transform="translate(0 .179)"><mask id="d" fill="#fff"><use xlink:href="#c"/></mask><path fill="#F14942" d="M102.374 33.738h6.466V13.66h-6.466v7.364h-6.086V13.66h-6.507v20.081h6.507V26.17h6.086v7.568zM25.674 11.5a1.464 1.464 0 01.003-2.066 1.452 1.452 0 012.058.002c.568.57.568 1.494 0 2.064a1.451 1.451 0 01-2.058.006l-.001-.001-.001-.005zm1.88 9.48c2.474-4.012 3.34-10.384 3.34-10.384l-.96-.418c-.127-.042-.168-.167-.043-.293l.711-.879a5.103 5.103 0 00-4.383-2.304A6.57 6.57 0 0022.53 7.79a47.026 47.026 0 00-3.895 3.081 62.066 62.066 0 00-9.54 10.366.185.185 0 00.141.286h4.214c2.755 0 6.343-.5 10.058-4.437a.184.184 0 01.237-.053c.074.041.1.134.06.209l-.006.01a13.334 13.334 0 01-4.715 6.03h3.588a5.83 5.83 0 004.882-2.297v-.006zm-3.637 4.846l2.81 7.924h7.837c-1.626-4.857-3.379-9.42-5.006-13.606a10.486 10.486 0 01-5.64 5.686v-.004zM0 33.75h7.93l2.683-8.414h-7.72A212.82 212.82 0 000 33.753v-.003zm10.74-18.044l4.005-3.308c.835-2.302 1.711-4.647 2.629-6.615.459 1.047.884 2.096 1.344 3.227 2.203-1.812 3.547-2.895 5.366-3.41-1.127-2.47-1.912-4.17-2.288-4.924h-8.888c-.75 1.591-3.587 7.494-6.885 15.49h3.213a2.08 2.08 0 001.503-.458v-.002zM59.793 31.52l.417 2.217h5.257V13.66h-6.506v13.93a3.98 3.98 0 01-2.71 1.381c-1.793 0-2.794-1.047-2.794-2.93v-12.38h-6.466V27.59a4.291 4.291 0 01-2.918 1.381c-1.668 0-2.585-1.047-2.585-2.93v-12.38h-6.465v13.26c0 4.853 2.085 7.239 6.465 7.239a8.156 8.156 0 006.466-2.721c1.002 1.8 2.837 2.72 5.503 2.72a7.911 7.911 0 006.336-2.635v-.004zm20.561-3.933a3.948 3.948 0 01-3.126 1.381c-1.75 0-2.71-1.632-2.71-4.77 0-3.85 1.042-5.773 3.127-5.773a10.13 10.13 0 012.71.292v8.87zm-5.322 6.572h.205c2.886-.03 4.884-1.03 5.993-2.637l.334 2.216h5.295V14.494a27.469 27.469 0 00-9.09-1.256c-6.465 0-10.008 3.976-10.008 11.212 0 6.746 2.479 9.68 7.271 9.706v.004z" mask="url(#d)"/></g></g></svg>