<svg xmlns="http://www.w3.org/2000/svg" xmlns:xlink="http://www.w3.org/1999/xlink" width="127" height="38"><defs><filter id="a" width="107.2%" height="112.5%" x="-3.6%" y="-5.9%" filterUnits="objectBoundingBox"><feOffset dy="2" in="SourceAlpha" result="shadowOffsetOuter1"/><feGaussianBlur in="shadowOffsetOuter1" result="shadowBlurOuter1" stdDeviation="11"/><feColorMatrix in="shadowBlurOuter1" values="0 0 0 0 0.700152853 0 0 0 0 0.700152853 0 0 0 0 0.700152853 0 0 0 0.5 0"/></filter><rect id="b" width="940" height="546" rx="20"/></defs><g fill="none" fill-rule="evenodd"><g transform="translate(-331 -427)"><use fill="#000" filter="url(#a)" xlink:href="#b"/><use fill="#FFF" xlink:href="#b"/></g><g fill-rule="nonzero"><path fill="#80BB3D" d="M48.5 18.98c0 10.4-10.823 18.831-24.174 18.831-13.351 0-24.174-8.43-24.174-18.83C.152 8.58 10.975.15 24.326.15 37.676.15 48.5 8.58 48.5 18.98z"/><path fill="#FFF" d="M45.8 18.946c-.014-8.897-9.64-16.095-21.498-16.077-3.215.005-6.263.54-9 1.494-2.321-.288-4.603.63-4.603.63S12.363 7.7 14.862 8.69c1.757.696 3.74.11 4.087-.22 0 0-.682-1.401-2.885-2.382-.853-.38-2.03-.721-3.338-.907.88.076 1.628-.02 3.406.55 2.476.794 3.13 2.282 3.13 2.282.141-1.402-.791-2.391-1.709-2.922a26.77 26.77 0 016.75-.862c11.113-.017 20.132 6.574 20.145 14.722.004 2.522-.856 4.897-2.375 6.976-.026-.026-1.016-1.046-2.228-1.937.545-3.283-1.854-6.335-4.465-7.841 1.197-3.833-2.481-7.749-9.145-7.89-.992-.007-2.35.045-3.233.14l.37-2.368h-.527c-1.85.016-2.537 1.208-2.736 1.676l-.714 1.383c-4.145 1.157-6.419 3.137-6.622 3.314-.48.417-.381.597.473.24a33.248 33.248 0 015.159-1.638l-5.592 10.357c-2.992-.345-6.112.009-7.69 2.05a11.173 11.173 0 01-.92-4.4c-.007-4.72 3.01-8.926 7.71-11.634-1.19-.78-2.267-.147-2.606.098l-.018.012C5.31 10.42 2.846 14.501 2.852 19.012c.004 2.109.548 4.122 1.532 5.966-.12.636-.05 1.385.512 2.108.756.972 2.27 1.402 4.04.778 2.388-.84 4.225-3.475 4.809-4.431-1.726-.285-2.408.347-2.652.674-.704.945-1.739 2.006-2.823 2.474-2.22.958-3.656-1.064-1.903-2.69 1.187-1.102 3.541-1.332 5.665-1.062h.052a22.083 22.083 0 015.203 1.358 279.931 279.931 0 01-.701 3.994l.79.01c2.583-.002 2.81-1.943 2.81-1.943a36.1 36.1 0 00.133-.683 138.752 138.752 0 014.788 2.492c.606.335 1.483.316 1.619-.57l1.003-6.874c2.627-.154 5.207-1.184 6.583-2.688 1.198.947 2.307 2.455 2.519 4.28-1.467-.642-3.125-1.025-4.827-.76-3.944.616-5.323 4.698-3.154 7.015 1.627 1.738 3.96 1.927 6.47.972a7.337 7.337 0 003.522-2.888 5.396 5.396 0 00-.949-.78c-1.108-.686-1.929.092-2.167.364-.703.886-1.665 1.533-2.672 1.781-4.587 1.127-5.02-4.918-.317-5.1 1.487-.057 2.796.581 3.949 1.422v.002c1.19.9 2.824 2.567 3.64 3.14 1.74 1.219 3.434.682 3.434.682s-.293-.486-.78-1.105c1.797-2.36 2.824-5.092 2.82-8.004zm-28.19 3.4c-.89-.288-2.559-.637-2.906-.707l4.41-8.189-1.503 8.896zm10.33-3.18l.406-2.78c-3.045.024-3.483 2.12-3.533 2.452-1.457-.707-.22-2.231 1.83-2.622 2.27-.433 4.424.078 5.723.615-.73 1.353-2.345 2.16-4.425 2.335zm4.955-3.983c-1.155-.304-2.694-.58-4.299-.522l.54-3.691c-3.247-.551-3.424 1.646-3.424 1.646l-.387 2.645c-3.014 1.175-3.302 3.883-.724 4.937a642.38 642.38 0 01-.67 4.52 84.011 84.011 0 00-3.273-1.339l2.047-13.09c8.77-.916 10.485 3.149 10.19 4.894zm6.174 13.827l-.003.003c-3.654 2.891-8.942 4.712-14.719 4.72-5.736.01-10.915-1.76-14.585-4.561-.362-.277-1.281-.904-2.436-.338 3.932 3.814 10.097 6.266 17.025 6.255 6.952-.01 13.129-2.499 17.047-6.349-1.105-.55-2.07.075-2.329.27z"/><path d="M98.136 3.657c-1.244 0-1.715.509-2.158 1.591l-1.34 4.036-2.385-5.627h-3.847l4.547 9.903c-.077.18-.134.32-.134.32-.343.78-1.047.886-1.654.886l-1.382-.032-.332 2.53c.81.225 1.645.315 2.583.315 1.575 0 2.776-.727 3.402-2.047l.733-1.575c.14-.305.281-.632.415-.978l3.64-9.322h-2.088zm-14.368 4.91h-2.033V6.458h4.283c1.013-.045 1.584-.612 1.584-1.63l.002.004V3.629h-7.31c-1.508.032-2.203.997-2.203 2.128v11.619h5.946c3.646 0 4.941-2.373 4.941-4.404 0-2.192-1.61-4.405-5.21-4.405zm-1.002 5.98h-1.03v-3.15h1.473c1.255-.002 1.931.689 1.931 1.535 0 .693-.245 1.614-2.374 1.614zm34.468-2.53l1.663-4.49 1.83 4.49h-3.493zm-8.624-1.65c.409-.388.879-1.094 1.196-1.827l.482-1.118c.343-.78 1.01-.886 1.62-.886h.086l.367-2.788-.23-.038a6.942 6.942 0 00-1.224-.12c-1.568 0-2.776.726-3.402 2.047l-.847 1.824c-.451.982-1.011 1.401-1.872 1.401h-.756V3.628h-1.447c-1.484.032-2.177.967-2.198 2.076v11.67h3.645v-5.683h.544c1.185 0 2.176.873 2.949 2.594l1.397 3.09h6.326s.899-2.423.98-2.646h5.619l1.077 2.646h3.933l-5.997-13.747h-2.509c-1.28 0-1.742.535-2.198 1.686L112.1 15.55l-.948-1.976c-.78-1.634-1.635-2.708-2.54-3.208zm-33.733-.348c.924-.45 2.033-1.498 2.033-3.044 0-2.388-2.743-3.458-5.46-3.458-1.27 0-2.724.238-4.422.71l.313 2.91s1.75-.532 2.715-.616c1.99-.173 2.854.44 2.854 1.174 0 .334 0 1.35-2.643 1.35h-1.275v2.809h1.064c2.136 0 2.93.344 2.93 1.27 0 .922-.91 1.421-2.7 1.39-.982 0-2.024-.124-2.959-.346.038.147.254.957.594 1.676.24.508.778 1.49 1.838 1.604 0 0 .764.085 1.366.069 3.725-.1 5.863-1.502 5.863-4.12 0-1.793-1.019-2.73-2.11-3.378zM61.621 3.63H59.11c-1.215 0-1.691.485-2.126 1.516l-4.843 12.23h3.868l.982-2.647h5.617l1.079 2.646h3.933L61.621 3.63zm-3.623 8.387l1.663-4.49 1.83 4.49h-3.493zm6.885 14.033c.958-.615 1.52-1.568 1.52-2.62 0-1.705-1.42-3.54-4.536-3.54H58.19c-1.43.03-2.12.899-2.188 1.954v11.792h6.577c4.476 0 4.824-3.146 4.824-4.11 0-1.642-.939-2.909-2.52-3.475zm-5.235-3.332h1.527c1.099 0 1.488.659 1.488 1.222 0 .582-.39 1.26-1.488 1.26h-1.527v-2.482zm1.662 8.089h-1.662V28.03h2.105c.877 0 1.815.346 1.815 1.32 0 .922-.37 1.457-2.258 1.457zm50.973-10.896h-2.513c-1.214 0-1.69.487-2.126 1.517l-4.842 12.23h3.868l.982-2.647h5.616c.089.214 1.08 2.647 1.08 2.647h3.932l-5.997-13.747zm-3.624 8.389c.157-.422 1.4-3.782 1.664-4.49l1.83 4.49h-3.494zm-17.683-8.388c-1.243 0-1.714.508-2.157 1.59l-1.34 4.036c-.192-.453-1.746-3.298-2.744-5.654h-3.779c1.736 3.78 4.627 9.471 4.838 9.93-.077.18-.134.32-.134.32-.344.78-1.047.886-1.655.886l-1.381-.032-.333 2.53c.811.225 1.646.315 2.584.315 1.575 0 2.776-.727 3.402-2.047l.732-1.575c.141-.306.282-.631.416-.978l3.64-9.321h-2.089zm-10.852 2.907l.366-2.788-.228-.038a6.931 6.931 0 00-1.226-.12c-1.567 0-2.775.726-3.401 2.047l-.847 1.824c-.451.982-1.011 1.4-1.872 1.4h-.757v-5.232h-1.445c-1.495.032-2.189.981-2.2 2.101v11.645h3.645v-5.684h.545c1.185 0 2.176.873 2.949 2.594l1.397 3.09h4.056l-1.825-3.802c-.78-1.634-1.635-2.707-2.542-3.208.41-.387.88-1.093 1.197-1.826l.482-1.118c.343-.78 1.01-.886 1.62-.886h.086zm22.476 9.117c.308-.846.567-2.028.566-2.024-.987.394-2.168.916-3.85.878-2.547 0-3.89-1.819-3.89-4.009 0-2.142 1.39-4.048 3.813-4.048 1.317 0 2.497.368 3.948 1.23l.14.084v-3.415c-1.558-.635-2.822-.92-4.06-.92-2.042 0-3.905.726-5.248 2.045-1.35 1.326-2.094 3.167-2.094 5.184 0 1.592.651 3.285 1.744 4.53.94 1.07 2.655 2.345 5.493 2.345.612 0 1.047-.017 1.592-.135.95-.205 1.539-.9 1.846-1.745z" fill="#4B721D"/></g></g></svg>