<svg xmlns="http://www.w3.org/2000/svg" width="268" height="26"><g fill="none"><path fill="#2C9942" d="M13.268.11c3.82 0 6.633 1.18 8.057 2.188V8.34c-1.458-2.153-4.41-4.237-8.057-4.237-5.314 0-8.579 3.438-8.579 8.543 0 4.724 2.883 8.44 8.475 8.544 4.237 0 7.224-1.944 8.648-4.41v5.348c-1.216 1.46-4.411 3.057-8.614 3.057C5.279 25.151 0 20.462 0 12.613 0 5.285 5.21.11 13.268.11zM43.34.492v3.993H30.42v4.342h4.758c6.669 0 10.073 2.501 10.073 7.85 0 5.348-3.96 8.126-10.177 8.126H26.08V.492h17.26zm22.725 0v3.994H53.597v5.8h11.184v3.994H53.597v6.53h12.85v3.994h-17.19V.49h16.81l-.002.002zm12.878 0c7.676 0 10.94 2.744 10.94 8.231 0 5.661-3.82 8.509-10.94 8.509h-3.75v7.571h-4.342V.492h8.092zM35.04 12.822h-4.619v7.987h4.619c3.473 0 5.696-1.006 5.696-4.237 0-2.917-1.944-3.75-5.696-3.75zm44.286-8.336h-4.133v8.752h4.064c4.029 0 6.112-1.32 6.112-4.62 0-2.986-1.805-4.132-6.043-4.132z"/><path fill="#B9BABC" d="M102.815.449l8.07 13.252L118.883.449h5.148v24.347h-4.348V6.501l-7.826 12.938h-2.19l-8-12.764v18.121h-4.349V.449h5.497zm39.441 0l10.017 24.347h-4.626l-2.33-5.774h-11.165l-2.296 5.774h-4.417L137.317.449h4.939zm21.563 0c7.686 0 10.956 2.748 10.956 8.243 0 5.67-3.826 8.522-10.956 8.522h-3.756v7.582h-4.348V.45h8.104V.449zm20.102 0v10.225h3.652L195.4.45h5.287L191.4 12.03l10.782 12.765h-5.565l-8.835-10.539h-3.86v10.539h-4.349V.449h4.348zm83.692 0v4h-8.209v20.347h-4.347V4.45h-8.07v-4h20.626V.449zM139.717 5.04l-4 9.982h8l-4-9.982zm24.483-.59h-4.138v8.764h4.069c4.035 0 6.121-1.321 6.121-4.625 0-2.991-1.808-4.14-6.052-4.14v.001z"/><path fill="#FFC300" d="M237.648 10.284a2.537 2.537 0 012.535 2.534l-.006.166a2.537 2.537 0 01-2.529 2.368h-17.664l-.166-.006a2.538 2.538 0 01-2.368-2.528l.005-.166a2.537 2.537 0 012.529-2.368h17.664zm3.125-9.422a2.537 2.537 0 012.533 2.535 2.537 2.537 0 01-2.533 2.534h-24.047a2.537 2.537 0 01-2.534-2.534 2.537 2.537 0 012.534-2.535h24.047z"/><path fill="#FFC300" d="M206.395 0a2.537 2.537 0 00-2.534 2.534 2.537 2.537 0 002.534 2.534h1.216a2242.04 2242.04 0 003.068 8.287c3.892 10.452 3.892 10.452 4.657 10.962.719.479.719.479 10.362.479 4.465 0 8.906-.016 8.906-.016.633 0 1.24-.254 1.684-.704a2.371 2.371 0 00.692-1.689 2.392 2.392 0 00-2.393-2.376c-5.88.02-13.253.025-16.308-.011-1.707-4.412-6.562-17.535-6.85-18.38-.275-.809-.577-1.585-1.72-1.62h-3.314z"/></g></svg>