<svg xmlns="http://www.w3.org/2000/svg" xmlns:xlink="http://www.w3.org/1999/xlink" width="127" height="35"><defs><filter id="a" width="107.2%" height="112.5%" x="-3.6%" y="-5.9%" filterUnits="objectBoundingBox"><feOffset dy="2" in="SourceAlpha" result="shadowOffsetOuter1"/><feGaussianBlur in="shadowOffsetOuter1" result="shadowBlurOuter1" stdDeviation="11"/><feColorMatrix in="shadowBlurOuter1" values="0 0 0 0 0.700152853 0 0 0 0 0.700152853 0 0 0 0 0.700152853 0 0 0 0.5 0"/></filter><rect id="b" width="940" height="546" rx="20"/><path id="c" d="M0 34.173h126.276V.474H0z"/></defs><g fill="none" fill-rule="evenodd"><g transform="translate(-60 -428)"><use fill="#000" filter="url(#a)" xlink:href="#b"/><use fill="#FFF" xlink:href="#b"/></g><path fill="#32456B" d="M0 34.553h126.275V.855H0z"/><g transform="translate(0 .38)"><path fill="#32456B" d="M113.746 22.682a.95.95 0 01-.921.927h-7.05a1.018 1.018 0 01-.98-.927V11.848c.03-.233.144-.73.944-.81h7.088c.803.081.888.577.917.81l.002 10.834zm2.441-15.726h-13.83c-2.075.167-3.832 1.216-4.067 3.564v13.414c.235 2.347 1.99 3.591 4.068 3.757h13.833c2.076-.166 3.834-1.41 4.068-3.757V10.52c-.239-2.348-1.994-3.397-4.072-3.564zM60.21 11.038h-6.183V6.956H72.9v4.082h-6.183V27.69H60.21V11.038zm-8.137 0V6.956H35.149V27.69l17.15-.006.004-4.078H41.674v-4.44h10.398v-4.071H41.676v-4.058h10.396zm37.753 3.215c0 .448-.112.842-.92.842h-7.54v-4.07h7.549c.918 0 .91.597.91.971l.001 2.257zm1.804 5.378c2.03-.162 4.054-1.537 4.054-3.799v-5.118c-.235-2.336-1.996-3.6-4.08-3.765H74.856V27.69h6.509v-8.059h2.59l4.231 8.06h7.484l-5.04-8.06h.998zm-69.953 8.06l4.363-13.024v13.024h6.51V6.956h-8.79l-4.235 10.369-4.23-10.368H6.508V27.69h6.51V14.667l4.391 13.025h4.266z"/><mask id="d" fill="#fff"><use xlink:href="#c"/></mask><path fill="#32456B" d="M0 34.173h126.276V.474H0z" mask="url(#d)"/><path fill="#FFDB32" d="M113.746 22.682a.95.95 0 01-.921.927h-7.05a1.018 1.018 0 01-.98-.927V11.848c.03-.233.144-.73.944-.81h7.088c.803.081.888.577.917.81l.002 10.834zm2.441-15.726h-13.83c-2.075.167-3.832 1.216-4.067 3.564v13.414c.235 2.347 1.99 3.591 4.068 3.757h13.833c2.076-.166 3.834-1.41 4.068-3.757V10.52c-.239-2.348-1.994-3.397-4.072-3.564zM60.21 11.038h-6.183V6.956H72.9v4.082h-6.183V27.69H60.21V11.038zm-8.137 0V6.956H35.149V27.69l17.15-.006.004-4.078H41.674v-4.44h10.398v-4.071H41.676v-4.058h10.396zm37.753 3.215c0 .448-.112.842-.92.842h-7.54v-4.07h7.549c.918 0 .91.597.91.971l.001 2.257zm1.804 5.378c2.03-.162 4.054-1.537 4.054-3.799v-5.118c-.235-2.336-1.996-3.6-4.08-3.765H74.856V27.69h6.509v-8.059h2.59l4.231 8.06h7.484l-5.04-8.06h.998zm-69.953 8.06l4.363-13.024v13.024h6.51V6.956h-8.79l-4.235 10.369-4.23-10.368H6.508V27.69h6.51V14.667l4.391 13.025h4.266z" mask="url(#d)"/></g></g></svg>